<?xml version="1.0" encoding="UTF-8" standalone="no"?><!DOCTYPE svg PUBLIC "-//W3C//DTD SVG 1.1//EN" "http://www.w3.org/Graphics/SVG/1.1/DTD/svg11.dtd"><svg width="100%" height="100%" viewBox="0 0 711 188" version="1.1" xmlns="http://www.w3.org/2000/svg" xmlns:xlink="http://www.w3.org/1999/xlink" xml:space="preserve" xmlns:serif="http://www.serif.com/" style="fill-rule:evenodd;clip-rule:evenodd;stroke-linejoin:round;stroke-miterlimit:2;"><path d="M67,133.024c-8.256,-0 -15.336,-1.512 -21.24,-4.536c-5.904,-3.024 -10.416,-7.344 -13.536,-12.96c-3.12,-5.616 -4.68,-12.264 -4.68,-19.944l0,-65.376l19.008,0l0,65.952c0,6.144 1.752,10.992 5.256,14.544c3.504,3.552 8.568,5.328 15.192,5.328c6.624,0 11.688,-1.776 15.192,-5.328c3.504,-3.552 5.256,-8.4 5.256,-14.544l0,-65.952l19.008,0l0,65.376c0,7.68 -1.56,14.328 -4.68,19.944c-3.12,5.616 -7.632,9.936 -13.536,12.96c-5.904,3.024 -12.984,4.536 -21.24,4.536Z" style="fill:#f4f4f5;fill-rule:nonzero;"/><path d="M125.464,131.008l0,-71.424l17.856,0l0,9.36l2.592,0c1.152,-2.496 3.312,-4.872 6.48,-7.128c3.168,-2.256 7.968,-3.384 14.4,-3.384c5.568,0 10.44,1.272 14.616,3.816c4.176,2.544 7.416,6.048 9.72,10.512c2.304,4.464 3.456,9.672 3.456,15.624l0,42.624l-18.144,0l0,-41.184c0,-5.376 -1.32,-9.408 -3.96,-12.096c-2.64,-2.688 -6.408,-4.032 -11.304,-4.032c-5.568,0 -9.888,1.848 -12.96,5.544c-3.072,3.696 -4.608,8.856 -4.608,15.48l0,36.288l-18.144,0Z" style="fill:#f4f4f5;fill-rule:nonzero;"/><path d="M239.512,131.008c-4.704,0 -8.52,-1.464 -11.448,-4.392c-2.928,-2.928 -4.392,-6.84 -4.392,-11.736l0,-40.32l-17.856,0l0,-14.976l17.856,0l0,-22.176l18.144,0l0,22.176l19.584,0l0,14.976l-19.584,0l0,37.152c0,2.88 1.344,4.32 4.032,4.32l13.824,0l0,14.976l-20.16,0Z" style="fill:#f4f4f5;fill-rule:nonzero;"/><path d="M285.592,159.808l0,-15.84l38.88,0c2.688,-0 4.032,-1.44 4.032,-4.32l0,-18l-2.592,0c-0.768,1.632 -1.968,3.264 -3.6,4.896c-1.632,1.632 -3.84,2.976 -6.624,4.032c-2.784,1.056 -6.336,1.584 -10.656,1.584c-5.568,-0 -10.44,-1.272 -14.616,-3.816c-4.176,-2.544 -7.416,-6.072 -9.72,-10.584c-2.304,-4.512 -3.456,-9.696 -3.456,-15.552l0,-42.624l18.144,0l0,41.184c0,5.376 1.32,9.408 3.96,12.096c2.64,2.688 6.408,4.032 11.304,4.032c5.568,0 9.888,-1.848 12.96,-5.544c3.072,-3.696 4.608,-8.856 4.608,-15.48l0,-36.288l18.144,0l0,84.096c0,4.896 -1.44,8.808 -4.32,11.736c-2.88,2.928 -6.72,4.392 -11.52,4.392l-44.928,0Z" style="fill:#f4f4f5;fill-rule:nonzero;"/><path d="M366.52,159.808l0,-100.224l17.856,0l0,8.64l2.592,0c1.632,-2.784 4.176,-5.256 7.632,-7.416c3.456,-2.16 8.4,-3.24 14.832,-3.24c5.76,0 11.088,1.416 15.984,4.248c4.896,2.832 8.832,6.984 11.808,12.456c2.976,5.472 4.464,12.096 4.464,19.872l0,2.304c0,7.776 -1.488,14.4 -4.464,19.872c-2.976,5.472 -6.912,9.624 -11.808,12.456c-4.896,2.832 -10.224,4.248 -15.984,4.248c-4.32,-0 -7.944,-0.504 -10.872,-1.512c-2.928,-1.008 -5.28,-2.304 -7.056,-3.888c-1.776,-1.584 -3.192,-3.192 -4.248,-4.824l-2.592,0l0,37.008l-18.144,0Zm37.44,-42.624c5.664,0 10.344,-1.8 14.04,-5.4c3.696,-3.6 5.544,-8.856 5.544,-15.768l0,-1.44c0,-6.912 -1.872,-12.168 -5.616,-15.768c-3.744,-3.6 -8.4,-5.4 -13.968,-5.4c-5.568,0 -10.224,1.8 -13.968,5.4c-3.744,3.6 -5.616,8.856 -5.616,15.768l0,1.44c0,6.912 1.872,12.168 5.616,15.768c3.744,3.6 8.4,5.4 13.968,5.4Z" style="fill:#f4f4f5;fill-rule:nonzero;"/><path d="M458.392,131.008l0,-71.424l18.144,0l0,71.424l-18.144,0Zm9.072,-79.776c-3.264,0 -6.024,-1.056 -8.28,-3.168c-2.256,-2.112 -3.384,-4.896 -3.384,-8.352c0,-3.456 1.128,-6.24 3.384,-8.352c2.256,-2.112 5.016,-3.168 8.28,-3.168c3.36,0 6.144,1.056 8.352,3.168c2.208,2.112 3.312,4.896 3.312,8.352c0,3.456 -1.104,6.24 -3.312,8.352c-2.208,2.112 -4.992,3.168 -8.352,3.168Z" style="fill:#f4f4f5;fill-rule:nonzero;"/><path d="M530.248,133.024c-6.912,-0 -13.176,-1.44 -18.792,-4.32c-5.616,-2.88 -10.056,-7.056 -13.32,-12.528c-3.264,-5.472 -4.896,-12.096 -4.896,-19.872l0,-2.016c0,-7.776 1.632,-14.4 4.896,-19.872c3.264,-5.472 7.704,-9.648 13.32,-12.528c5.616,-2.88 11.88,-4.32 18.792,-4.32c6.816,0 12.672,1.2 17.568,3.6c4.896,2.4 8.856,5.688 11.88,9.864c3.024,4.176 5.016,8.904 5.976,14.184l-17.568,3.744c-0.384,-2.88 -1.248,-5.472 -2.592,-7.776c-1.344,-2.304 -3.24,-4.128 -5.688,-5.472c-2.448,-1.344 -5.496,-2.016 -9.144,-2.016c-3.648,0 -6.936,0.792 -9.864,2.376c-2.928,1.584 -5.232,3.936 -6.912,7.056c-1.68,3.12 -2.52,6.936 -2.52,11.448l-0,1.44c-0,4.512 0.84,8.328 2.52,11.448c1.68,3.12 3.984,5.472 6.912,7.056c2.928,1.584 6.216,2.376 9.864,2.376c5.472,0 9.624,-1.416 12.456,-4.248c2.832,-2.832 4.632,-6.552 5.4,-11.16l17.568,4.176c-1.248,5.088 -3.384,9.72 -6.408,13.896c-3.024,4.176 -6.984,7.464 -11.88,9.864c-4.896,2.4 -10.752,3.6 -17.568,3.6Z" style="fill:#f4f4f5;fill-rule:nonzero;"/><path d="M603.256,133.024c-5.088,-0 -9.648,-0.888 -13.68,-2.664c-4.032,-1.776 -7.224,-4.368 -9.576,-7.776c-2.352,-3.408 -3.528,-7.56 -3.528,-12.456c0,-4.896 1.176,-9 3.528,-12.312c2.352,-3.312 5.616,-5.808 9.792,-7.488c4.176,-1.68 8.952,-2.52 14.328,-2.52l19.584,0l0,-4.032c0,-3.36 -1.056,-6.12 -3.168,-8.28c-2.112,-2.16 -5.472,-3.24 -10.08,-3.24c-4.512,0 -7.872,1.032 -10.08,3.096c-2.208,2.064 -3.648,4.728 -4.32,7.992l-16.704,-5.616c1.152,-3.648 3,-6.984 5.544,-10.008c2.544,-3.024 5.952,-5.472 10.224,-7.344c4.272,-1.872 9.48,-2.808 15.624,-2.808c9.408,0 16.848,2.352 22.32,7.056c5.472,4.704 8.208,11.52 8.208,20.448l0,26.64c0,2.88 1.344,4.32 4.032,4.32l5.76,0l0,14.976l-12.096,0c-3.552,0 -6.48,-0.864 -8.784,-2.592c-2.304,-1.728 -3.456,-4.032 -3.456,-6.912l0,-0.144l-2.736,0c-0.384,1.152 -1.248,2.664 -2.592,4.536c-1.344,1.872 -3.456,3.528 -6.336,4.968c-2.88,1.44 -6.816,2.16 -11.808,2.16Zm3.168,-14.688c5.088,0 9.24,-1.416 12.456,-4.248c3.216,-2.832 4.824,-6.6 4.824,-11.304l0,-1.44l-18.288,0c-3.36,0 -6,0.72 -7.92,2.16c-1.92,1.44 -2.88,3.456 -2.88,6.048c0,2.592 1.008,4.704 3.024,6.336c2.016,1.632 4.944,2.448 8.784,2.448Z" style="fill:#f4f4f5;fill-rule:nonzero;"/><rect x="664.312" y="30.208" width="18.144" height="100.8" style="fill:#f4f4f5;fill-rule:nonzero;"/><circle cx="467.186" cy="40.016" r="12.387" style="fill:#f37734;"/></svg>